<svg width="115" height="117" viewBox="0 0 115 117" fill="none" xmlns="http://www.w3.org/2000/svg">
<path d="M20.5396 61.7764L0.866699 42.1035L20.5396 22.5691L40.074 42.1035L20.5396 61.7764ZM43.6761 116.916V87.4506C37.765 86.9595 31.9 86.3214 26.0813 85.5363C20.2625 84.7513 14.4438 83.666 8.62503 82.2806L10.7032 73.9681C18.5786 75.8153 26.4775 77.1315 34.3999 77.9165C42.3222 78.7016 50.3618 79.0941 58.5186 79.0941C66.6754 79.0941 74.7149 78.7016 82.6373 77.9165C90.5597 77.1315 98.4462 75.8153 106.297 73.9681L108.375 82.2806C102.556 83.666 96.7383 84.7609 90.9211 85.5651C85.1039 86.3695 79.2381 86.9833 73.324 87.4066V116.916H43.6761ZM20.5396 50.2775L28.575 42.1035L20.5396 34.0681L12.3657 42.1035L20.5396 50.2775ZM58.4837 31.0202C54.246 31.0202 50.6493 29.537 47.6938 26.5705C44.7382 23.6041 43.2604 20.0021 43.2604 15.7643C43.2604 11.5265 44.7437 7.9299 47.7101 4.97435C50.6765 2.01879 54.2786 0.541016 58.5164 0.541016C62.7541 0.541016 66.3507 2.02424 69.3063 4.99069C72.2618 7.95706 73.7396 11.5591 73.7396 15.7969C73.7396 20.0347 72.2564 23.6313 69.2899 26.5868C66.3236 29.5424 62.7215 31.0202 58.4837 31.0202ZM58.5111 70.6431C55.7329 70.6431 53.3509 69.6539 51.3651 67.6755C49.3794 65.6971 48.3865 63.3188 48.3865 60.5406C48.3865 57.7624 49.3757 55.3804 51.3541 53.3947C53.3325 51.4089 55.7108 50.416 58.489 50.416C61.2672 50.416 63.6492 51.4052 65.6349 53.3836C67.6207 55.362 68.6136 57.7403 68.6136 60.5185C68.6136 63.2967 67.6244 65.6787 65.646 67.6645C63.6675 69.6502 61.2892 70.6431 58.5111 70.6431ZM58.4758 22.7077C60.4315 22.7077 62.079 22.0461 63.4183 20.7231C64.7575 19.4001 65.4271 17.7607 65.4271 15.8048C65.4271 13.8491 64.7656 12.2016 63.4425 10.8624C62.1195 9.52313 60.4801 8.85352 58.5243 8.85352C56.5685 8.85352 54.921 9.51505 53.5818 10.8381C52.2426 12.1611 51.5729 13.8005 51.5729 15.7564C51.5729 17.7121 52.2345 19.3596 53.5576 20.6988C54.8805 22.0381 56.52 22.7077 58.4758 22.7077ZM88.7021 60.1139L80.1125 44.8744L88.7483 29.6348H106.02L114.609 44.8744L105.974 60.1139H88.7021ZM93.5049 51.8014H101.171L105.05 44.8744L101.217 37.9473H93.5511L89.6719 44.8744L93.5049 51.8014Z" fill="#51ACDF"/>
</svg>
