<svg width="70" height="70" viewBox="0 0 70 70" fill="none" xmlns="http://www.w3.org/2000/svg">
<path d="M32.5936 56.8014L12.3228 36.5306C12.0797 36.2875 11.9096 36.0445 11.8123 35.8014C11.7151 35.5584 11.6665 35.291 11.6665 34.9993C11.6665 34.7077 11.7151 34.4403 11.8123 34.1973C11.9096 33.9542 12.0797 33.7112 12.3228 33.4681L32.6665 13.1243C33.0554 12.7355 33.5415 12.541 34.1248 12.541C34.7082 12.541 35.2186 12.7598 35.6561 13.1973C36.0936 13.6348 36.3123 14.1452 36.3123 14.7285C36.3123 15.3118 36.0936 15.8223 35.6561 16.2598L19.104 32.8118H55.2707C55.9026 32.8118 56.4252 33.0184 56.8384 33.4316C57.2516 33.8448 57.4582 34.3674 57.4582 34.9993C57.4582 35.6313 57.2516 36.1539 56.8384 36.5671C56.4252 36.9803 55.9026 37.1869 55.2707 37.1869H19.104L35.729 53.8119C36.1179 54.2007 36.3123 54.6869 36.3123 55.2702C36.3123 55.8535 36.0936 56.3639 35.6561 56.8014C35.2186 57.2389 34.7082 57.4577 34.1248 57.4577C33.5415 57.4577 33.0311 57.2389 32.5936 56.8014Z" fill="#51ACDF"/>
</svg>
