<svg width="34" height="37" viewBox="0 0 34 37" fill="none" xmlns="http://www.w3.org/2000/svg">
<path d="M4.33398 36.75C2.12485 36.75 0.333984 34.9591 0.333984 32.75V13.75C0.333984 12.491 0.926761 11.3054 1.93398 10.55L14.6006 1.05C16.0229 -0.0166653 17.9784 -0.0166667 19.4007 1.05L32.0673 10.55C33.0745 11.3054 33.6673 12.491 33.6673 13.75V32.75C33.6673 34.9591 31.8765 36.75 29.6673 36.75H25.1673C22.9582 36.75 21.1673 34.9591 21.1673 32.75V26.1667C21.1673 23.9575 19.3765 22.1667 17.1673 22.1667H16.834C14.6248 22.1667 12.834 23.9575 12.834 26.1667V32.75C12.834 34.9591 11.0431 36.75 8.83398 36.75H4.33398Z" fill="white"/>
</svg>
