<svg width="84" height="111" viewBox="0 0 84 111" fill="none" xmlns="http://www.w3.org/2000/svg">
<path d="M0 110.833V79.9385H14.4083V110.833H0ZM29.3708 110.833V39.4844C24.3833 41.701 20.6427 44.7951 18.149 48.7667C15.6552 52.7382 14.4083 57.9104 14.4083 64.2833H6.09583C6.09583 53.0153 9.46701 44.2872 16.2094 38.099C22.9517 31.9108 32.0955 28.8167 43.6406 28.8167C53.708 28.8167 61.4201 26.9464 66.7771 23.2057C72.134 19.4651 74.8125 12.8382 74.8125 3.325H83.125C83.125 12.0993 81.1161 19.188 77.0984 24.5911C73.0807 29.9943 66.9156 33.6656 58.6031 35.6052V110.833H50.2906V75.5052H37.6833V110.833H29.3708ZM43.6517 20.2271C40.8735 20.2271 38.4915 19.2379 36.5057 17.2595C34.52 15.2811 33.5271 12.9028 33.5271 10.1246C33.5271 7.34641 34.5163 4.96441 36.4946 2.97865C38.4731 0.992882 40.8514 0 43.6295 0C46.4078 0 48.7898 0.989185 50.7755 2.96756C52.7613 4.94603 53.7542 7.32433 53.7542 10.1025C53.7542 12.8807 52.765 15.2627 50.7866 17.2484C48.8081 19.2342 46.4298 20.2271 43.6517 20.2271Z" fill="#123181"/>
</svg>
